HIERARCHY
ROOT root
{
  OFFSET 0 10 0
  CHANNELS 6 Xposition Yposition Zposition Zrotation Xrotation Yrotation
  JOINT foot_0_0
  {
    OFFSET 0 -7.5 0
    CHANNELS 3 Zrotation Xrotation Yrotation
    JOINT foot_0_1
    {
      OFFSET 3.62407 -2.5 3.82084
      CHANNELS 3 Zrotation Xrotation Yrotation
      End Site
      {
        OFFSET 0.45695 0 5.01038
      }
    }
  }
  JOINT foot_1_0
  {
    OFFSET 0 -7.5 0
    CHANNELS 3 Zrotation Xrotation Yrotation
    JOINT foot_1_1
    {
      OFFSET -3.62407 -2.5 3.82084
      CHANNELS 3 Zrotation Xrotation Yrotation
      End Site
      {
        OFFSET -0.45695 0 5.01038
      }
    }
  }
  JOINT foot_2_0
  {
    OFFSET 0 -7.5 0
    CHANNELS 3 Zrotation Xrotation Yrotation
    JOINT foot_2_1
    {
      OFFSET 0 -2.5 -2.5
      CHANNELS 3 Zrotation Xrotation Yrotation
      End Site
      {
        OFFSET 0 0 -2.5
      }
    }
  }
}
MOTION
Frames:	67
Frame Time:	0.0333333
0 10 0 0 0 -0 0 0 -0 0 0.05328 -0 0 0 -0 0 0.05328 -0 0 0 -0 -0 -0.05328 -0
0 10 0 0 0 -0 0 0 -0 0 1.26 -0 0 0 -0 0 1.26 -0 0 0 -0 -0 -1.26 -0
0 10 0 0 0 -0 0 0 -0 0 3.84912 -0 0 0 -0 0 3.84912 -0 0 0 -0 -0 -3.84912 -0
0 10 0 0 0 -0 0 0 -0 0 7.54416 -0 0 0 -0 0 7.54416 -0 0 0 -0 -0 -7.54416 -0
0 10 0 0 0 -0 0 0 -0 0 12.0686 -0 0 0 -0 0 12.0686 -0 0 0 -0 -0 -12.0686 -0
0 10 0 0 0 -0 0 0 -0 0 17.1461 -0 0 0 -0 0 17.1461 -0 0 0 -0 -0 -17.1461 -0
0 10 0 0 0 -0 0 0 -0 0 22.5 -0 0 0 -0 0 22.5 -0 0 0 -0 -0 -22.5 -0
0 10 0 0 0 -0 0 0 -0 0 27.8539 -0 0 0 -0 0 27.8539 -0 0 0 -0 -0 -27.8539 -0
0 10 0 0 0 -0 0 0 -0 0 32.9314 -0 0 0 -0 0 32.9314 -0 0 0 -0 -0 -32.9314 -0
0 10 0 0 0 -0 0 0 -0 0 37.4558 -0 0 0 -0 0 37.4558 -0 0 0 -0 -0 -37.4558 -0
0 10 0 0 0 -0 0 0 -0 0 41.1509 -0 0 0 -0 0 41.1509 -0 0 0 -0 -0 -41.1509 -0
0 10 0 0 0 -0 0 0 -0 0 43.74 -0 0 0 -0 0 43.74 -0 0 0 -0 -0 -43.74 -0
0 10 0 0 0 -0 0 0 -0 0 44.9467 -0 0 0 -0 0 44.9467 -0 0 0 -0 -0 -44.9467 -0
0 10 0 0 0 -0 0 0 -0 0 44.5334 -0 0 0 -0 0 44.5334 -0 0 0 -0 -0 -44.5334 -0
0 10 0 0 0 -0 0 0 -0 0 42.601 -0 0 0 -0 0 42.601 -0 0 0 -0 -0 -42.601 -0
0 10 0 0 0 -0 0 0 -0 0 39.4243 -0 0 0 -0 0 39.4243 -0 0 0 -0 -0 -39.4243 -0
0 10 0 0 0 -0 0 0 -0 0 35.28 -0 0 0 -0 0 35.28 -0 0 0 -0 -0 -35.28 -0
0 10 0 0 0 -0 0 0 -0 0 30.4445 -0 0 0 -0 0 30.4445 -0 0 0 -0 -0 -30.4445 -0
0 10 0 0 0 -0 0 0 -0 0 25.1942 -0 0 0 -0 0 25.1942 -0 0 0 -0 -0 -25.1942 -0
0 10 0 0 0 -0 0 0 -0 0 19.8058 -0 0 0 -0 0 19.8058 -0 0 0 -0 -0 -19.8058 -0
0 10 0 0 0 -0 0 0 -0 0 14.5555 -0 0 0 -0 0 14.5555 -0 0 0 -0 -0 -14.5555 -0
0 10 0 0 0 -0 0 0 -0 0 9.72 -0 0 0 -0 0 9.72 -0 0 0 -0 -0 -9.72 -0
0 10 0 0 0 -0 0 0 -0 0 5.57568 -0 0 0 -0 0 5.57568 -0 0 0 -0 -0 -5.57568 -0
0 10 0 0 0 -0 0 0 -0 0 2.39904 -0 0 0 -0 0 2.39904 -0 0 0 -0 -0 -2.39904 -0
0 10 0 0 0 -0 0 0 -0 0 0.46656 -0 0 0 -0 0 0.46656 -0 0 0 -0 -0 -0.46656 -0
0 10 0 0 0 -0 0 0 -0 0 0.05328 -0 0 0 -0 0 0.05328 -0 0 0 -0 -0 -0.05328 -0
0 10 0 0 0 -0 0 0 -0 0 1.26 -0 0 0 -0 0 1.26 -0 0 0 -0 -0 -1.26 -0
0 10 0 0 0 -0 0 0 -0 0 3.84912 -0 0 0 -0 0 3.84912 -0 0 0 -0 -0 -3.84912 -0
0 10 0 0 0 -0 0 0 -0 0 7.54416 -0 0 0 -0 0 7.54416 -0 0 0 -0 -0 -7.54416 -0
0 10 0 0 0 -0 0 0 -0 0 12.0686 -0 0 0 -0 0 12.0686 -0 0 0 -0 -0 -12.0686 -0
0 10 0 0 0 -0 0 0 -0 0 17.1461 -0 0 0 -0 0 17.1461 -0 0 0 -0 -0 -17.1461 -0
0 10 0 0 0 -0 0 0 -0 0 22.5 -0 0 0 -0 0 22.5 -0 0 0 -0 -0 -22.5 -0
0 10 0 0 0 -0 0 0 -0 0 27.8539 -0 0 0 -0 0 27.8539 -0 0 0 -0 -0 -27.8539 -0
0 10 0 0 0 -0 0 0 -0 0 32.9314 -0 0 0 -0 0 32.9314 -0 0 0 -0 -0 -32.9314 -0
0 10 0 0 0 -0 0 0 -0 0 37.4558 -0 0 0 -0 0 37.4558 -0 0 0 -0 -0 -37.4558 -0
0 10 0 0 0 -0 0 0 -0 0 41.1509 -0 0 0 -0 0 41.1509 -0 0 0 -0 -0 -41.1509 -0
0 10 0 0 0 -0 0 0 -0 0 43.74 -0 0 0 -0 0 43.74 -0 0 0 -0 -0 -43.74 -0
0 10 0 0 0 -0 0 0 -0 0 44.9467 -0 0 0 -0 0 44.9467 -0 0 0 -0 -0 -44.9467 -0
0 10 0 0 0 -0 0 0 -0 0 44.5334 -0 0 0 -0 0 44.5334 -0 0 0 -0 -0 -44.5334 -0
0 10 0 0 0 -0 0 0 -0 0 42.601 -0 0 0 -0 0 42.601 -0 0 0 -0 -0 -42.601 -0
0 10 0 0 0 -0 0 0 -0 0 39.4243 -0 0 0 -0 0 39.4243 -0 0 0 -0 -0 -39.4243 -0
0 10 0 0 0 -0 0 0 -0 0 35.28 -0 0 0 -0 0 35.28 -0 0 0 -0 -0 -35.28 -0
0 10 0 0 0 -0 0 0 -0 0 30.4445 -0 0 0 -0 0 30.4445 -0 0 0 -0 -0 -30.4445 -0
0 10 0 0 0 -0 0 0 -0 0 25.1942 -0 0 0 -0 0 25.1942 -0 0 0 -0 -0 -25.1942 -0
0 10 0 0 0 -0 0 0 -0 0 19.8058 -0 0 0 -0 0 19.8058 -0 0 0 -0 -0 -19.8058 -0
0 10 0 0 0 -0 0 0 -0 0 14.5555 -0 0 0 -0 0 14.5555 -0 0 0 -0 -0 -14.5555 -0
0 10 0 0 0 -0 0 0 -0 0 9.72 -0 0 0 -0 0 9.72 -0 0 0 -0 -0 -9.72 -0
0 10 0 0 0 -0 0 0 -0 0 5.57568 -0 0 0 -0 0 5.57568 -0 0 0 -0 -0 -5.57568 -0
0 10 0 0 0 -0 0 0 -0 0 2.39904 -0 0 0 -0 0 2.39904 -0 0 0 -0 -0 -2.39904 -0
0 10 0 0 0 -0 0 0 -0 0 0.46656 -0 0 0 -0 0 0.46656 -0 0 0 -0 -0 -0.46656 -0
0 10 0 0 0 -0 0 0 -0 0 0.05328 -0 0 0 -0 0 0.05328 -0 0 0 -0 -0 -0.05328 -0
0 10 0 0 0 -0 0 0 -0 0 1.26 -0 0 0 -0 0 1.26 -0 0 0 -0 -0 -1.26 -0
0 10 0 0 0 -0 0 0 -0 0 3.84912 -0 0 0 -0 0 3.84912 -0 0 0 -0 -0 -3.84912 -0
0 10 0 0 0 -0 0 0 -0 0 7.54416 -0 0 0 -0 0 7.54416 -0 0 0 -0 -0 -7.54416 -0
0 10 0 0 0 -0 0 0 -0 0 12.0686 -0 0 0 -0 0 12.0686 -0 0 0 -0 -0 -12.0686 -0
0 10 0 0 0 -0 0 0 -0 0 17.1461 -0 0 0 -0 0 17.1461 -0 0 0 -0 -0 -17.1461 -0
0 10 0 0 0 -0 0 0 -0 0 22.5 -0 0 0 -0 0 22.5 -0 0 0 -0 -0 -22.5 -0
0 10 0 0 0 -0 0 0 -0 0 27.8539 -0 0 0 -0 0 27.8539 -0 0 0 -0 -0 -27.8539 -0
0 10 0 0 0 -0 0 0 -0 0 32.9314 -0 0 0 -0 0 32.9314 -0 0 0 -0 -0 -32.9314 -0
0 10 0 0 0 -0 0 0 -0 0 37.4558 -0 0 0 -0 0 37.4558 -0 0 0 -0 -0 -37.4558 -0
0 10 0 0 0 -0 0 0 -0 0 41.1509 -0 0 0 -0 0 41.1509 -0 0 0 -0 -0 -41.1509 -0
0 10 0 0 0 -0 0 0 -0 0 43.74 -0 0 0 -0 0 43.74 -0 0 0 -0 -0 -43.74 -0
0 10 0 0 0 -0 0 0 -0 0 44.9467 -0 0 0 -0 0 44.9467 -0 0 0 -0 -0 -44.9467 -0
0 10 0 0 0 -0 0 0 -0 0 44.5334 -0 0 0 -0 0 44.5334 -0 0 0 -0 -0 -44.5334 -0
0 10 0 0 0 -0 0 0 -0 0 42.601 -0 0 0 -0 0 42.601 -0 0 0 -0 -0 -42.601 -0
0 10 0 0 0 -0 0 0 -0 0 39.4243 -0 0 0 -0 0 39.4243 -0 0 0 -0 -0 -39.4243 -0
0 10 0 0 0 -0 0 0 -0 0 35.28 -0 0 0 -0 0 35.28 -0 0 0 -0 -0 -35.28 -0
